# xmcd
#
# Track frame offsets: 
#        182
#        14822
#        29227
#        40405
#        58212
#        72480
#        84582
#        94217
#        107880
#        124127
#        136510
#        150042
#        163207
#        174875
#        186907
#        199905
#        210792
#        221342
#        230677
#        242990
#
# Disc length: 3423 seconds
#
# Revision: 1
# Processed by: cddbd v1.5.2PL0 Copyright (c) Steve Scherf et al.
# Submitted via: ExactAudioCopy v0.99pb5
#
DISCID=210d5d14
DTITLE=Various Artist - Easy Listening Country 1
DYEAR=1900
DGENRE=Country
TTITLE0=Dickey Lee - Take Me Home, Country Roads
TTITLE1=Glen Campbell - Rhinestone Cowboy
TTITLE2=Chet Atkins - El Paso
TTITLE3=Ronnie Milsap - She Keeps The Homefires Burning
TTITLE4=Grant and Forsyth - Tennessee Waltz
TTITLE5=Del Reeves - Girl On The Billboard
TTITLE6=Eddy Arnold - Misty Blue
TTITLE7=Floyd Cramer - Blue Bayou
TTITLE8=Don Williams - Love Is On The Roll
TTITLE9=Danny Davis - Let Me Be There
TTITLE10=Glen Campbell - Southern Nights
TTITLE11=Crystal Gayle - Dreaming My Dreams With You
TTITLE12=Freddy Fender - Before The Next Teardrop Falls
TTITLE13=Glen Campbell - Galveston
TTITLE14=Danny Davis - Another Somebody Done Somebody Wrong Song
TTITLE15=Charlie Rich - There Won't Be Anymore
TTITLE16=Barbara Mandrell - Sleeping Single In A Double Bed
TTITLE17=Charley Pride - Kiss An Angle Good Mornin'
TTITLE18=Dolly Parton - Divorce
TTITLE19=Grant and Forsyth - Lady Bird
EXTD=
EXTT0=
EXTT1=
EXTT2=
EXTT3=
EXTT4=
EXTT5=
EXTT6=
EXTT7=
EXTT8=
EXTT9=
EXTT10=
EXTT11=
EXTT12=
EXTT13=
EXTT14=
EXTT15=
EXTT16=
EXTT17=
EXTT18=
EXTT19=
PLAYORDER=
